<?xml version="1.0" encoding="UTF-8"?>
<!DOCTYPE svg PUBLIC "-//W3C//DTD SVG 1.1//EN" "http://www.w3.org/Graphics/SVG/1.1/DTD/svg11.dtd">
<!-- Creator: CorelDRAW 2017 -->
<svg xmlns="http://www.w3.org/2000/svg" xml:space="preserve" width="90mm" height="200mm" version="1.1" style="shape-rendering:geometricPrecision; text-rendering:geometricPrecision; image-rendering:optimizeQuality; fill-rule:evenodd; clip-rule:evenodd"
viewBox="0 0 9000 20000"
 xmlns:xlink="http://www.w3.org/1999/xlink">
 <defs>
  <style type="text/css">
   <![CDATA[
    .fil1 {fill:#33AE6D}
    .fil0 {fill:#009846}
    .fil2 {fill:#98CDAB}
   ]]>
  </style>
 </defs>
 <g id="Слой_x0020_1">
  <metadata id="CorelCorpID_0Corel-Layer"/>
  <g id="_2486512282480">
   <path class="fil0" d="M4500 6200c2099,0 3800,1701 3800,3800 0,2099 -1701,3800 -3800,3800 -2099,0 -3800,-1701 -3800,-3800 0,-2099 1701,-3800 3800,-3800zm0 673c1727,0 3127,1400 3127,3127 0,1727 -1400,3127 -3127,3127 -1727,0 -3127,-1400 -3127,-3127 0,-1727 1400,-3127 3127,-3127z"/>
   <g>
    <circle class="fil0" cx="4500" cy="10000" r="2466"/>
    <path class="fil1" d="M4500 6794c1770,0 3206,1435 3206,3206 0,1770 -1435,3206 -3206,3206 -1770,0 -3206,-1435 -3206,-3206 0,-1770 1435,-3206 3206,-3206zm-1452 5559c-537,0 -972,-435 -972,-972 0,-537 435,-972 972,-972 537,0 972,435 972,972 0,537 -435,972 -972,972zm2950 0c-537,0 -972,-435 -972,-972 0,-537 435,-972 972,-972 537,0 972,435 972,972 0,537 -435,972 -972,972zm0 -2796c-537,0 -972,-435 -972,-972 0,-537 435,-972 972,-972 537,0 972,435 972,972 0,537 -435,972 -972,972zm-2951 -31c-537,0 -972,-435 -972,-972 0,-537 435,-972 972,-972 537,0 972,435 972,972 0,537 -435,972 -972,972z"/>
    <circle class="fil2" cx="4125" cy="9651" r="286"/>
    <circle class="fil2" cx="4865" cy="9651" r="286"/>
    <circle class="fil2" cx="4125" cy="10366" r="286"/>
    <circle class="fil2" cx="4865" cy="10366" r="286"/>
    <rect class="fil2" x="5572" y="9917" width="1747" height="166" rx="315" ry="83"/>
    <rect class="fil2" x="1669" y="9917" width="1747" height="166" rx="315" ry="83"/>
    <rect class="fil2" transform="matrix(5.77223E-15 -0.825449 0.217947 2.18616E-14 4416.79 12813.4)" width="2117" height="764" rx="382" ry="382"/>
    <rect class="fil2" transform="matrix(5.77223E-15 -0.825449 0.217947 2.18616E-14 4416.79 8943.17)" width="2117" height="764" rx="382" ry="382"/>
   </g>
  </g>
 </g>
</svg>
