<?xml version="1.0" encoding="UTF-8"?>
<!DOCTYPE svg PUBLIC "-//W3C//DTD SVG 1.1//EN" "http://www.w3.org/Graphics/SVG/1.1/DTD/svg11.dtd">
<!-- Creator: CorelDRAW 2017 -->
<svg xmlns="http://www.w3.org/2000/svg" xml:space="preserve" width="108mm" height="108mm" version="1.1" style="shape-rendering:geometricPrecision; text-rendering:geometricPrecision; image-rendering:optimizeQuality; fill-rule:evenodd; clip-rule:evenodd"
viewBox="0 0 10800 10800"
 xmlns:xlink="http://www.w3.org/1999/xlink">
 <defs>
  <style type="text/css">
   <![CDATA[
    .fil0 {fill:#B9DCC4}
    .fil1 {fill:#98CDAB}
    .fil2 {fill:#78C197}
    .fil3 {fill:#5CB782}
    .fil4 {fill:#57B680}
    .fil5 {fill:#30AD69}
   ]]>
  </style>
 </defs>
 <g id="Слой_x0020_1">
  <metadata id="CorelCorpID_0Corel-Layer"/>
  <g id="_2140926647216">
   <g>
    <rect class="fil0" x="1728" y="2236" width="4512" height="3825"/>
    <path class="fil1" d="M3987 4684l0 0c1587,0 2885,1298 2885,2885l0 3218 -5769 0 0 -3218c0,-1587 1298,-2885 2885,-2885z"/>
    <ellipse class="fil1" cx="3987" cy="2520" rx="2056" ry="2174"/>
    <path class="fil1" d="M3987 4684l0 0c1587,0 2885,1298 2885,2885l0 3218 -5769 0 0 -3218c0,-1587 1298,-2885 2885,-2885z"/>
    <ellipse class="fil1" cx="3987" cy="2520" rx="2056" ry="2174"/>
    <path class="fil0" d="M3485 68l999 0c966,0 1757,634 1757,1408l0 1408c-365,45 -1596,-1342 -2254,-2274 -623,953 -1756,2301 -2258,2274l0 -1408c0,-774 790,-1408 1757,-1408z"/>
    <g>
     <path class="fil1" d="M8815 6605l0 0c1085,0 1972,888 1972,1972l0 2200 -3945 0 0 -2200c0,-1085 888,-1972 1972,-1972z"/>
     <ellipse class="fil1" cx="8815" cy="5125" rx="1406" ry="1487"/>
     <path class="fil1" d="M8815 6605l0 0c1085,0 1972,888 1972,1972l0 2200 -3945 0 0 -2200c0,-1085 888,-1972 1972,-1972z"/>
     <ellipse class="fil1" cx="8815" cy="5125" rx="1406" ry="1487"/>
    </g>
   </g>
   <g>
    <rect class="fil2" x="1193" y="2221" width="4512" height="3825"/>
    <path class="fil3" d="M3451 4669l0 0c1587,0 2885,1298 2885,2885l0 3218 -5769 0 0 -3218c0,-1587 1298,-2885 2885,-2885z"/>
    <ellipse class="fil3" cx="3451" cy="2506" rx="2056" ry="2174"/>
    <path class="fil2" d="M2949 54l999 0c966,0 1757,634 1757,1408l0 1408c-365,45 -1596,-1342 -2254,-2274 -623,953 -1756,2301 -2258,2274l0 -1408c0,-774 790,-1408 1757,-1408z"/>
    <g>
     <path class="fil3" d="M8280 6590l0 0c1085,0 1972,888 1972,1972l0 2200 -3945 0 0 -2200c0,-1085 888,-1972 1972,-1972z"/>
     <ellipse class="fil3" cx="8280" cy="5111" rx="1406" ry="1487"/>
     <path class="fil3" d="M8280 6590l0 0c1085,0 1972,888 1972,1972l0 2200 -3945 0 0 -2200c0,-1085 888,-1972 1972,-1972z"/>
     <ellipse class="fil3" cx="8280" cy="5111" rx="1406" ry="1487"/>
    </g>
   </g>
   <g>
    <rect class="fil4" x="636" y="2225" width="4512" height="3825"/>
    <path class="fil5" d="M2894 4673l0 0c1587,0 2885,1298 2885,2885l0 3218 -5769 0 0 -3218c0,-1587 1298,-2885 2885,-2885z"/>
    <ellipse class="fil5" cx="2894" cy="2509" rx="2056" ry="2174"/>
    <path class="fil4" d="M2392 58l999 0c966,0 1757,634 1757,1408l0 1408c-365,45 -1596,-1342 -2254,-2274 -623,953 -1756,2301 -2258,2274l0 -1408c0,-774 790,-1408 1757,-1408z"/>
    <g>
     <path class="fil5" d="M7707 6594l0 0c1085,0 1972,888 1972,1972l0 2200 -3945 0 0 -2200c0,-1085 888,-1972 1972,-1972z"/>
     <ellipse class="fil5" cx="7707" cy="5115" rx="1406" ry="1487"/>
     <path class="fil5" d="M7707 6594l0 0c1085,0 1972,888 1972,1972l0 2200 -3945 0 0 -2200c0,-1085 888,-1972 1972,-1972z"/>
     <ellipse class="fil5" cx="7707" cy="5115" rx="1406" ry="1487"/>
    </g>
   </g>
  </g>
 </g>
</svg>
