<?xml version="1.0" encoding="UTF-8"?>
<!DOCTYPE svg PUBLIC "-//W3C//DTD SVG 1.1//EN" "http://www.w3.org/Graphics/SVG/1.1/DTD/svg11.dtd">
<!-- Creator: CorelDRAW 2017 -->
<svg xmlns="http://www.w3.org/2000/svg" xml:space="preserve" width="90mm" height="200mm" version="1.1" style="shape-rendering:geometricPrecision; text-rendering:geometricPrecision; image-rendering:optimizeQuality; fill-rule:evenodd; clip-rule:evenodd"
viewBox="0 0 9000 20000"
 xmlns:xlink="http://www.w3.org/1999/xlink">
 <defs>
  <style type="text/css">
   <![CDATA[
    .fil3 {fill:#30AD69}
    .fil2 {fill:#74CF9B}
    .fil1 {fill:#98CDAB}
    .fil0 {fill:#B9DCC4}
   ]]>
  </style>
 </defs>
 <g id="Слой_x0020_1">
  <metadata id="CorelCorpID_0Corel-Layer"/>
  <g id="_2486648680384">
   <rect class="fil0" x="1957" y="7744" width="3159" height="2709"/>
   <path class="fil1" d="M3538 9478l0 0c1111,0 2020,973 2020,2161l0 2161 -4040 0 0 -2161c0,-1189 909,-2161 2020,-2161z"/>
   <ellipse class="fil1" cx="3538" cy="7945" rx="1439" ry="1540"/>
   <path class="fil1" d="M3538 9478l0 0c1111,0 2020,973 2020,2161l0 2161 -4040 0 0 -2161c0,-1189 909,-2161 2020,-2161z"/>
   <ellipse class="fil1" cx="3538" cy="7945" rx="1439" ry="1540"/>
   <path class="fil0" d="M3187 6208l699 0c677,0 1230,449 1230,997l0 997c-256,32 -1117,-951 -1578,-1611 -436,675 -1230,1630 -1582,1611l0 -997c0,-548 553,-997 1230,-997l1 0z"/>
   <g>
    <path class="fil1" d="M6919 10838l0 0c759,0 1381,665 1381,1478l0 1478 -2762 0 0 -1478c0,-812 622,-1478 1381,-1478z"/>
    <ellipse class="fil1" cx="6919" cy="9790" rx="984" ry="1053"/>
    <path class="fil1" d="M6919 10838l0 0c759,0 1381,665 1381,1478l0 1478 -2762 0 0 -1478c0,-812 622,-1478 1381,-1478z"/>
    <ellipse class="fil1" cx="6919" cy="9790" rx="984" ry="1053"/>
   </g>
   <rect class="fil2" x="1138" y="7736" width="3159" height="2709"/>
   <path class="fil3" d="M2720 9470l0 0c1111,0 2020,973 2020,2161l0 2161 -4040 0 0 -2161c0,-1189 909,-2161 2020,-2161z"/>
   <ellipse class="fil3" cx="2720" cy="7937" rx="1439" ry="1540"/>
   <path class="fil2" d="M2368 6200l700 0c677,0 1230,449 1230,997l0 997c-256,32 -1117,-951 -1578,-1611 -436,675 -1230,1630 -1582,1611l0 -997c0,-548 553,-997 1230,-997z"/>
   <g>
    <path class="fil3" d="M6090 10831l0 0c759,0 1381,665 1381,1478l0 1478 -2762 0 0 -1478c0,-812 622,-1478 1381,-1478z"/>
    <ellipse class="fil3" cx="6090" cy="9782" rx="984" ry="1053"/>
    <path class="fil3" d="M6090 10831l0 0c759,0 1381,665 1381,1478l0 1478 -2762 0 0 -1478c0,-812 622,-1478 1381,-1478z"/>
    <ellipse class="fil3" cx="6090" cy="9782" rx="984" ry="1053"/>
   </g>
  </g>
 </g>
</svg>
